<?xml version="1.0" encoding="utf-8"?>
<!-- Generator: Adobe Illustrator 21.0.2, SVG Export Plug-In . SVG Version: 6.00 Build 0)  -->
<svg version="1.1" id="svg_needle" xmlns="http://www.w3.org/2000/svg" xmlns:xlink="http://www.w3.org/1999/xlink" x="0px" y="0px"
	 viewBox="0 0 360 360" style="enable-background:new 0 0 360 360;" xml:space="preserve">
<style type="text/css">
	.st0{fill:#FFFFFF;}
	.st1{opacity:0.2;enable-background:new    ;}
	.st2{opacity:0.2;}
	.st3{fill:url(#SVGID_1_);}
</style>
<g>
	<path class="st0" d="M20,310c-5.5,0-10-4.5-10-10s4.5-10,10-10c26.2,0,49.1-4.4,66.3-12.7c19.8-9.6,32.2-24.6,37-44.6
		c4.4-18.5-5.4-46.3-15.8-75.8c-4.1-11.5-8.2-23.3-11.7-35.2c-1,0.1-2,0.1-3,0.1c-29.8,1-56.3-7.2-70.8-21.7
		c-3.9-3.9-3.9-10.2,0-14.1s10.2-3.9,14.1,0c11.3,11.3,32.7,16.5,54.6,16c-6.4-30-5.4-58.9,16.2-80.9C123.5,4,138,3.3,147.2,5.7
		c13.3,3.5,24.1,16,28.9,33.5c5.8,21.5,1.1,43.8-12,56.9c-11.1,11.1-28.3,19.2-48.2,23.1c3.1,10.2,6.8,20.7,10.5,31
		c11.4,32.3,22.2,62.9,16.4,87.1C131.5,284.2,87.9,310,20,310z M139.3,24.7c-6.6,0-13.4,5.4-18.2,10.3
		c-15.9,16.3-16.2,39.4-10.5,64.9c15.8-2.9,30.3-9,39.3-18c9.2-9.2,10.1-25.5,6.8-37.5c-2.8-10.3-8.4-17.8-14.6-19.4
		C141.2,24.8,140.3,24.7,139.3,24.7z"/>
</g>
<path id="needle_string1" class="st1" d="M126.3,150.2c0-0.1-0.1-0.1-0.1-0.2c-0.9-2.5-1.7-4.9-2.6-7.4c0-0.1,0-0.1-0.1-0.2c-0.9-2.5-1.8-5.1-2.6-7.6
	c0-0.1-0.1-0.2-0.1-0.2c-0.9-2.5-1.7-5-2.5-7.5c0-0.1,0-0.1-0.1-0.2c-0.8-2.5-1.6-5-2.4-7.5c0,0,0,0,0-0.1l0,0
	c-1.3,0.3-2.6,0.5-4,0.7c3.2,10.4,6.9,21.1,10.7,31.6c11.2,31.7,21.8,61.7,16.3,84.9l-2.3,7.9c-6.3,18.4-18.4,33-36,43.4
	C80.2,299.9,53,306,20,306c-9,0-10-6-10-6c0,5.5,4.5,10,10,10c67.9,0,111.5-25.8,122.7-72.6l0,0
	C148.6,213.1,137.8,182.5,126.3,150.2z"/>
<path class="st1" d="M143.1,21.1c-1.2-0.3-2.5-0.5-3.8-0.5c-6.4,0-13.5,3.9-21,11.5c-17.2,17.5-17.5,41.8-11.6,68.4
	c1.3-0.2,2.6-0.4,4-0.7c0,0,0-0.1,0-0.1c-1.7-5.8-2.6-11.9-3.1-17.9c-0.4-5.7-0.6-11.6,0.2-17.3c1-8,3.8-15.8,8.2-22.6
	c2.8-4.3,6.2-8,10.2-11.2c3.8-3,8.4-5.9,13.4-5.9c0.9,0,1.9,0.1,2.8,0.4c5.1,1.3,9.7,6.5,12.8,13.9
	C154.9,38.9,150.8,23.2,143.1,21.1z"/>
<g class="st2">
	<path d="M21.9,86C21.9,85.9,21.9,85.9,21.9,86C21.9,85.9,21.9,85.9,21.9,86z"/>
	<path d="M154.4,104c3.6-2.4,6.9-5.1,9.7-8c13.1-13.1,17.8-35.4,12-56.9c-0.3-1.1-0.6-2.2-1-3.2c-0.7-2.1-1.5-4.1-2.3-6.1
		c-1.3-2.9-2.8-5.6-4.4-8.1c0,0,7.7,17.2,6,40.8c-0.2,2.4-0.5,4.8-1,7.1c-0.1,0.6-0.2,1.2-0.4,1.7c-0.3,1.1-0.6,2.3-0.9,3.4
		c-0.5,1.7-1.1,3.3-1.8,4.8c-2.2,5.2-5.2,9.8-9,13.6c-2.7,2.7-5.7,5.2-9.1,7.5L154.4,104z"/>
</g>
<g>
	
		<linearGradient id="SVGID_1_" gradientUnits="userSpaceOnUse" x1="189.3741" y1="169.6444" x2="217.5823" y2="185.9304" gradientTransform="matrix(1 0 0 -1 0 360)">
		<stop  offset="0" style="stop-color:#999999"/>
		<stop  offset="0.5" style="stop-color:#666666"/>
		<stop  offset="1" style="stop-color:#FFFFFF"/>
	</linearGradient>
	<path class="st3" d="M166.1,84.9c-10.5-18.2-25.3-29.3-33.1-24.8s-5.6,22.9,4.9,41.1S274,304.3,274,304.3S176.6,103,166.1,84.9z
		 M162.5,111.2c-4.3,2.5-12.5-3.6-18.3-13.7c-5.8-10-7-20.2-2.7-22.7s12.5,3.6,18.3,13.7C165.6,98.5,166.8,108.7,162.5,111.2z"/>
</g>
<g>
	<path class="st0" d="M143.1,87.5c-29.4,19.9-86.4,19.1-107.1-1.6c-3.9-3.9-10.2-3.9-14.1,0s-3.9,10.2,0,14.1
		c13.4,13.4,36.7,21.4,63.9,21.8c0.8,0,1.5,0,2.3,0c25.4,0,49.4-6.5,66.2-17.9L143.1,87.5z"/>
	<g class="st2">
		<path d="M21.9,86C21.9,85.9,21.9,85.9,21.9,86C21.9,85.9,21.9,85.9,21.9,86z"/>
		<path d="M152.1,100.7l-3.4,2.2c-15.9,9.6-37.7,15-60.6,15c-0.7,0-1.5,0-2.2,0c-24.2-0.4-45.2-6.9-58.2-17.9l-2.9-2.7
			c-6.5-6.9-3.2-10.9-2.9-11.3c-3.9,3.9-3.9,10.2,0,14.1c6.3,6.3,14.1,10.8,22.2,14.1c9.7,3.9,20,6.1,30.3,7.1
			c11.3,1.1,22.8,0.6,34.1-1c11.4-1.6,22.6-4.6,33-9.4c4.4-2,8.8-4.4,12.8-7.2L152.1,100.7z"/>
	</g>
</g>
</svg>
