<?xml version="1.0" encoding="utf-8"?>
<!-- Generator: Adobe Illustrator 21.0.2, SVG Export Plug-In . SVG Version: 6.00 Build 0)  -->
<svg version="1.1" id="Layer_1" xmlns="http://www.w3.org/2000/svg" xmlns:xlink="http://www.w3.org/1999/xlink" x="0px" y="0px"
	 viewBox="0 0 100 30" style="enable-background:new 0 0 100 30;" xml:space="preserve">
<style type="text/css">
	.st0{fill:#333333;}
	.st1{opacity:0.2;}
	.st2{opacity:0.4;}
</style>
<g>
	<g>
		<path class="st0" d="M96.7,7.9c0,0-3-8.8-14.4-5.8C82,2,74.5-2.6,58.5,2.2c-0.3-0.2-7.9-4.7-23.9,0c-0.6,0.2-1.2,0.4-1.8,0.6
			l0.9-0.6c0,0-7.5-4.9-23.9,0C-3.6,6.1-0.6,25.6,3.4,23c0,0,0.1-0.1,0,0l0,0c0,0,0,0,0,0c0,0,0,0,0,0l0,0c5.2,5.4,9.7,6.6,14.2,5.4
			C36.1,31.8,57,28.7,57,28.7s19.9,0.1,28.8,0.1c9,0,12.9-9.4,12.9-9.4S102.7,8.3,96.7,7.9z"/>
	</g>
	<path class="st1" d="M96.7,7.9c0,0-5,0-11.9,4.4c-2.8,1.8-6,5.2-10.4,8.2C70.9,23,51,24.7,63.9,14.1C69.8,9.3,81.8,2.6,81.8,2.6
		s-3.9,0.2-10.9,4.1c-7,3.9-20.8,14.7-26.8,16.3s-14.9,0.9-9.9-4.4S43.1,9.7,47,7C50.2,4.9,57,2.2,57,2.2S50,4.4,44.1,7
		c-5.7,2.5-12.9,11.5-19.9,14.2c-8.4,3.2-12.9-1.8-7-8C21,9.3,32.8,2.8,32.8,2.8s-8.6,1.6-16.6,8.7c-7,6.2-11.4,8.4-13.4,7.5
		C2.1,18.6,1,17.5,0,16.2c-0.1,4.5,1.5,8,3.3,6.7c0,0,0.1-0.1,0,0l0,0c0,0,0,0,0,0c0,0,0,0,0,0l0,0c5.2,5.4,9.7,6.6,14.2,5.4
		C36.1,31.8,57,28.7,57,28.7s19.9,0.1,28.8,0.1c9,0,12.9-9.4,12.9-9.4s0.3-0.9,0.7-2.2c-2,1.8-5.4,4.6-8.6,5.8c-5,1.8-5,0.9-8.9,0.9
		s-2-3.5,3-8S96.7,7.9,96.7,7.9z"/>
	<path class="st2" d="M96.7,7.9c0,0-5,0-11.9,4.4c-2.8,1.8-9.1,9.9-13.4,12.8c-3.5,2.4-25.8,1.8-12.9-8.9
		C72.4,4.8,81.8,2.6,81.8,2.6s-3.9,0.2-10.9,4.1c-7,3.9-22.3,17.8-28.3,19.4s-18-1-12.9-6.2c7-7.1,7.9-8,11.9-10.6
		C44.8,7.1,57,2.2,57,2.2S50,4.4,44.1,7c-5.7,2.5-17.4,14.6-24.3,17.3c-8.4,3.2-13-1.8-7-8c7-7.1,20-13.6,20-13.6s-8.6,1.6-16.6,8.7
		c-7,6.2-11.4,8.4-13.4,7.5C2.1,18.6,1,17.5,0,16.2c-0.1,4.5,1.5,8,3.3,6.7c0,0,0.1-0.1,0,0l0,0c0,0,0,0,0,0c0,0,0,0,0,0l0,0
		c5.2,5.4,9.7,6.6,14.2,5.4C36.1,31.8,57,28.7,57,28.7s19.9,0.1,28.8,0.1c9,0,12.9-9.4,12.9-9.4s0.3-0.9,0.7-2.2
		c-2,1.8-4.9,6.8-8.1,8c-5,1.8-7.9,1.8-11.9,1.8s-1.9-6.1,3-10.6C89,10,96.7,7.9,96.7,7.9z"/>
</g>
</svg>
